<svg width="163" height="62" viewBox="0 0 163 62" fill="none" xmlns="http://www.w3.org/2000/svg">
<g id="Calque 2">
<g id="Group 165">
<g id="Calque 2_2">
<path id="Vector" d="M75.7911 20.8817C77.5144 20.0328 79.4535 19.5557 81.5039 19.5557C88.6525 19.5557 94.4474 25.3505 94.4474 32.4991C94.4474 39.6477 88.6525 45.4426 81.5039 45.4426C74.3553 45.4426 68.5604 39.6477 68.5604 32.4991C68.5604 31.1857 68.5649 28.7837 68.5649 28.7837" stroke="#1D1D1B" stroke-width="3" stroke-miterlimit="10"/>
<path id="Vector_2" d="M120.392 44.1119C118.669 44.9601 116.73 45.4372 114.681 45.4372C107.532 45.4372 101.737 39.6423 101.737 32.4938C101.737 25.3452 107.532 19.5503 114.681 19.5503C121.829 19.5503 127.624 25.3452 127.624 32.4938V36.36" stroke="#1D1D1B" stroke-width="3" stroke-miterlimit="10"/>
<path id="Vector_3" d="M153.669 44.088C151.935 44.9519 149.978 45.4372 147.909 45.4372C140.76 45.4372 134.965 39.6423 134.965 32.4938C134.965 25.3452 140.76 19.5503 147.909 19.5503C155.057 19.5503 160.852 25.3452 160.852 32.4938C160.852 33.846 160.844 36.3727 160.844 36.3727" stroke="#1D1D1B" stroke-width="3" stroke-miterlimit="10"/>
<path id="Vector_4" d="M160.844 46.6672C160.844 53.8158 155.049 59.6107 147.901 59.6107C140.752 59.6107 134.957 53.8158 134.957 46.6672C134.957 46.4835 134.961 46.3013 134.968 46.1191" stroke="#1D1D1B" stroke-width="3" stroke-miterlimit="10"/>
<path id="Vector_5" d="M26.883 37.8408C24.8484 42.3231 20.334 45.4397 15.0909 45.4397C7.94234 45.4397 2.14746 39.6448 2.14746 32.4962C2.14746 25.3476 7.94234 19.5527 15.0909 19.5527C20.3086 19.5527 24.8058 22.6402 26.8539 27.0881" stroke="#1D1D1B" stroke-width="3" stroke-miterlimit="10"/>
<path id="Vector_6" d="M48.2667 45.4343C55.4152 45.4343 61.2102 39.6393 61.2102 32.4908C61.2102 25.3423 55.4152 19.5474 48.2667 19.5474C41.1182 19.5474 35.3232 25.3423 35.3232 32.4908C35.3232 39.6393 41.1182 45.4343 48.2667 45.4343Z" stroke="#1D1D1B" stroke-width="3" stroke-miterlimit="10"/>
<path id="Vector_7" d="M68.5604 32.4991V5.48242" stroke="#1D1D1B" stroke-width="3" stroke-miterlimit="10"/>
<path id="Vector_8" d="M127.623 32.4937V46.127" stroke="#1D1D1B" stroke-width="3" stroke-miterlimit="10"/>
<path id="Vector_9" d="M160.844 32.9419V46.6753" stroke="#1D1D1B" stroke-width="3" stroke-miterlimit="10"/>
</g>
<path id="Poign&#195;&#169;e valise" d="M71.3565 0.389648H65.8906C65.7547 0.389648 65.6445 0.498753 65.6445 0.633341V13.2834C65.6445 13.418 65.7547 13.5271 65.8906 13.5271H71.3565C71.4924 13.5271 71.6025 13.418 71.6025 13.2834V0.633341C71.6025 0.498753 71.4924 0.389648 71.3565 0.389648Z" fill="#1D1D1B"/>
<g id="Group">
<path id="Vector_10" d="M72.9622 52.7852C74.0895 52.7852 75.0034 51.8713 75.0034 50.7439C75.0034 49.6165 74.0895 48.7026 72.9622 48.7026C71.8348 48.7026 70.9209 49.6165 70.9209 50.7439C70.9209 51.8713 71.8348 52.7852 72.9622 52.7852Z" fill="#1D1D1B"/>
<path id="Vector_11" d="M71.3682 41.937H74.0476V49.1583H72.8161C72.0167 49.1583 71.3682 48.3124 71.3682 47.2698V41.937Z" fill="#1D1D1B"/>
</g>
<g id="Group_2">
<path id="Vector_12" d="M89.9622 52.7852C91.0895 52.7852 92.0034 51.8713 92.0034 50.7439C92.0034 49.6165 91.0895 48.7026 89.9622 48.7026C88.8348 48.7026 87.9209 49.6165 87.9209 50.7439C87.9209 51.8713 88.8348 52.7852 89.9622 52.7852Z" fill="#1D1D1B"/>
<path id="Vector_13" d="M88.3682 41.937H91.0476V49.1583H89.8161C89.0167 49.1583 88.3682 48.3124 88.3682 47.2698V41.937Z" fill="#1D1D1B"/>
</g>
</g>
</g>
</svg>
