<svg xmlns="http://www.w3.org/2000/svg" width="162" height="62" viewBox="0 0 162 62" fill="none">
  <path d="M75.2912 20.8817C77.0145 20.0328 78.9536 19.5557 81.004 19.5557C88.1525 19.5557 93.9474 25.3505 93.9474 32.4991C93.9474 39.6477 88.1525 45.4426 81.004 45.4426C73.8554 45.4426 68.0605 39.6477 68.0605 32.4991C68.0605 31.1857 68.065 28.7837 68.065 28.7837" stroke="#1D1D1B" stroke-width="3" stroke-miterlimit="10"/>
  <path d="M119.892 44.1124C118.169 44.9606 116.23 45.4377 114.181 45.4377C107.032 45.4377 101.237 39.6428 101.237 32.4942C101.237 25.3457 107.032 19.5508 114.181 19.5508C121.329 19.5508 127.124 25.3457 127.124 32.4942V36.3605" stroke="#1D1D1B" stroke-width="3" stroke-miterlimit="10"/>
  <path d="M153.169 44.0885C151.435 44.9524 149.479 45.4377 147.409 45.4377C140.26 45.4377 134.465 39.6428 134.465 32.4942C134.465 25.3457 140.26 19.5508 147.409 19.5508C154.557 19.5508 160.352 25.3457 160.352 32.4942C160.352 33.8465 160.344 36.3732 160.344 36.3732" stroke="#1D1D1B" stroke-width="3" stroke-miterlimit="10"/>
  <path d="M160.344 46.6672C160.344 53.8158 154.549 59.6107 147.401 59.6107C140.252 59.6107 134.457 53.8158 134.457 46.6672C134.457 46.4835 134.461 46.3013 134.468 46.1191" stroke="#1D1D1B" stroke-width="3" stroke-miterlimit="10"/>
  <path d="M26.383 37.8408C24.3484 42.3231 19.834 45.4397 14.5909 45.4397C7.44234 45.4397 1.64746 39.6448 1.64746 32.4962C1.64746 25.3476 7.44234 19.5527 14.5909 19.5527C19.8086 19.5527 24.3058 22.6402 26.3539 27.0881" stroke="#1D1D1B" stroke-width="3" stroke-miterlimit="10"/>
  <path d="M47.7668 45.4348C54.9153 45.4348 60.7103 39.6398 60.7103 32.4913C60.7103 25.3428 54.9153 19.5479 47.7668 19.5479C40.6183 19.5479 34.8234 25.3428 34.8234 32.4913C34.8234 39.6398 40.6183 45.4348 47.7668 45.4348Z" stroke="#1D1D1B" stroke-width="3" stroke-miterlimit="10"/>
  <path d="M68.0605 32.4991V5.48242" stroke="#1D1D1B" stroke-width="3" stroke-miterlimit="10"/>
  <path d="M127.123 32.4941V46.1275" stroke="#1D1D1B" stroke-width="3" stroke-miterlimit="10"/>
  <path d="M160.344 32.9414V46.6749" stroke="#1D1D1B" stroke-width="3" stroke-miterlimit="10"/>
  <path d="M70.8565 0.389648H65.3906C65.2547 0.389648 65.1445 0.498753 65.1445 0.633341V13.2834C65.1445 13.418 65.2547 13.5271 65.3906 13.5271H70.8565C70.9924 13.5271 71.1025 13.418 71.1025 13.2834V0.633341C71.1025 0.498753 70.9924 0.389648 70.8565 0.389648Z" fill="#1D1D1B"/>
  <path d="M72.4622 52.7856C73.5895 52.7856 74.5034 51.8717 74.5034 50.7444C74.5034 49.617 73.5895 48.7031 72.4622 48.7031C71.3348 48.7031 70.4209 49.617 70.4209 50.7444C70.4209 51.8717 71.3348 52.7856 72.4622 52.7856Z" fill="#1D1D1B"/>
  <path d="M70.8682 41.9375H73.5476V49.1588H72.3161C71.5167 49.1588 70.8682 48.3129 70.8682 47.2702V41.9375Z" fill="#1D1D1B"/>
  <path d="M89.4622 52.7856C90.5895 52.7856 91.5034 51.8717 91.5034 50.7444C91.5034 49.617 90.5895 48.7031 89.4622 48.7031C88.3348 48.7031 87.4209 49.617 87.4209 50.7444C87.4209 51.8717 88.3348 52.7856 89.4622 52.7856Z" fill="#1D1D1B"/>
  <path d="M87.8682 41.9375H90.5476V49.1588H89.3161C88.5167 49.1588 87.8682 48.3129 87.8682 47.2702V41.9375Z" fill="#1D1D1B"/>
</svg>